<?xml version="1.0" standalone="no"?>
<!DOCTYPE svg PUBLIC "-//W3C//DTD SVG 20010904//EN"
 "http://www.w3.org/TR/2001/REC-SVG-20010904/DTD/svg10.dtd">
<svg version="1.0" xmlns="http://www.w3.org/2000/svg"
 width="228.000000pt" height="221.000000pt" viewBox="0 0 228.000000 221.000000"
 preserveAspectRatio="xMidYMid meet">

<g transform="translate(0.000000,221.000000) scale(0.100000,-0.100000)"
fill="#000000" stroke="none">
<path d="M702 1018 c-21 -21 -15 -76 11 -89 21 -12 21 -11 5 8 -22 24 -23 57
-2 77 8 9 12 16 7 16 -5 0 -14 -5 -21 -12z"/>
<path d="M750 1026 c0 -2 7 -7 16 -10 8 -3 12 -2 9 4 -6 10 -25 14 -25 6z"/>
<path d="M848 975 c5 -71 17 -71 17 0 0 30 -4 55 -10 55 -6 0 -9 -23 -7 -55z"/>
<path d="M995 975 c0 -30 3 -55 8 -55 4 0 7 25 7 55 0 30 -3 55 -7 55 -5 0 -8
-25 -8 -55z"/>
<path d="M1080 1027 c0 -2 20 -25 45 -52 l45 -50 -1 40 c-1 32 -2 35 -8 16 -6
-24 -7 -24 -34 13 -23 29 -47 47 -47 33z"/>
<path d="M1160 1019 c0 -5 5 -7 10 -4 6 3 10 8 10 11 0 2 -4 4 -10 4 -5 0 -10
-5 -10 -11z"/>
<path d="M1250 975 c0 -30 5 -55 10 -55 6 0 10 25 10 55 0 30 -4 55 -10 55 -5
0 -10 -25 -10 -55z"/>
<path d="M1357 1012 c-23 -26 -21 -55 6 -78 12 -10 16 -12 10 -4 -16 18 -17
72 -1 88 7 7 10 12 7 12 -3 0 -13 -8 -22 -18z"/>
<path d="M1537 1017 c-3 -9 -2 -17 3 -17 6 0 10 -6 10 -13 0 -18 23 -67 32
-67 4 0 -1 19 -11 43 -10 23 -20 49 -23 56 -3 12 -6 12 -11 -2z"/>
<path d="M1091 964 c0 -11 3 -14 6 -6 3 7 2 16 -1 19 -3 4 -6 -2 -5 -13z"/>
<path d="M905 930 c-3 -5 -1 -10 4 -10 6 0 11 5 11 10 0 6 -2 10 -4 10 -3 0
-8 -4 -11 -10z"/>
<path d="M751 684 c-54 -127 -80 -178 -95 -184 -15 -7 -8 -9 29 -9 28 1 44 3
38 6 -18 7 -16 36 4 78 l17 35 71 0 72 0 17 -43 c19 -51 20 -64 4 -70 -7 -3
14 -6 46 -6 50 -1 57 1 43 12 -16 11 -157 325 -157 348 0 32 -24 -13 -89 -167z
m102 9 l26 -63 -65 0 -64 0 26 58 c14 31 28 63 31 70 8 19 18 5 46 -65z"/>
<path d="M1145 853 c-23 -6 -74 -41 -93 -63 -25 -30 -42 -83 -42 -130 0 -102
75 -179 173 -180 55 0 91 16 127 57 l25 28 -25 -21 c-39 -33 -65 -44 -107 -44
-50 0 -101 32 -119 75 -20 49 -18 141 5 192 44 95 170 98 221 5 l21 -37 -6 49
c-3 27 -5 56 -5 64 0 13 -2 13 -13 -2 -11 -16 -15 -16 -49 -1 -37 15 -74 17
-113 8z"/>
<path d="M255 843 c51 -13 55 -26 55 -183 0 -100 -4 -150 -12 -158 -9 -9 -4
-12 26 -12 34 0 36 1 22 16 -13 12 -16 40 -16 142 l1 127 39 -45 c22 -25 77
-91 123 -147 45 -56 85 -102 90 -103 4 0 7 79 7 175 0 173 0 176 23 185 17 7
8 9 -38 9 -33 -1 -53 -3 -45 -6 34 -12 40 -36 40 -150 0 -62 -3 -113 -7 -113
-5 1 -57 61 -117 135 l-109 135 -51 -1 c-28 -1 -42 -4 -31 -6z"/>
<path d="M1395 843 c11 -3 23 -10 27 -17 4 -6 8 -79 8 -163 0 -134 -2 -153
-17 -162 -13 -8 19 -10 113 -11 131 0 131 0 142 25 19 42 14 50 -13 21 -23
-25 -30 -27 -97 -24 l-73 3 -3 149 c-3 155 1 171 41 179 12 2 -16 4 -63 4 -47
1 -76 -2 -65 -4z"/>
<path d="M1730 841 l25 -7 3 -159 c2 -142 1 -161 -15 -172 -14 -11 7 -13 115
-13 146 0 135 -5 156 70 6 22 5 21 -14 -6 -27 -41 -64 -56 -131 -52 l-54 3 -3
83 -3 82 54 0 c57 0 82 -13 90 -45 3 -11 5 12 5 50 0 57 -1 65 -9 43 -8 -22
-19 -28 -53 -33 -77 -12 -81 -9 -84 73 l-3 72 74 0 c77 0 90 -6 100 -45 2 -11
5 -1 6 23 l1 42 -142 -1 c-79 -1 -132 -4 -118 -8z"/>
</g>
</svg>
